<svg aria-hidden="true" style="position: absolute; width: 0; height: 0; overflow: hidden;" version="1.1" xmlns="http://www.w3.org/2000/svg" xmlns:xlink="http://www.w3.org/1999/xlink">
<defs>
<symbol id="icon-icon3" viewBox="0 0 32 32">
<path d="M26.667 1.333h-21.333c-2.209 0-4 1.791-4 4v21.333c0 2.209 1.791 4 4 4h21.333c2.209 0 4-1.791 4-4v-21.333c0-2.209-1.791-4-4-4zM26.667 4c0.736 0 1.333 0.597 1.333 1.333v21.333c0 0.736-0.597 1.333-1.333 1.333h-6.667v-9.333h2.768c0.574 0 1.083-0.367 1.265-0.912l0.591-1.772c0.216-0.648-0.266-1.316-0.949-1.316h-3.675v-2.667c0-0.667 0.667-1.333 1.333-1.333h2.667c0.736 0 1.333-0.597 1.333-1.333v-0.915c0-0.431-0.275-0.817-0.692-0.927-1.748-0.461-3.308-0.461-3.308-0.461-3.333 0-5.333 2.303-5.333 4.303v3.333h-2.667c-0.736 0-1.333 0.597-1.333 1.333v1.333c0 0.736 0.597 1.333 1.333 1.333h2.667v9.333h-10.667c-0.736 0-1.333-0.597-1.333-1.333v-21.333c0-0.736 0.597-1.333 1.333-1.333h21.333z"></path>
</symbol>
<symbol id="icon-icon2" viewBox="0 0 32 32">
<path d="M30.816 5.993c0.424-2.066-1.606-3.784-3.573-3.023l-24.119 9.319c-2.197 0.849-2.295 3.922-0.156 4.909l5.252 2.424 2.499 8.745c0.13 0.454 0.49 0.806 0.948 0.925s0.943-0.014 1.277-0.348l3.849-3.849 5.392 4.044c1.565 1.174 3.819 0.319 4.212-1.598l4.42-21.547zM4.084 14.775l24.119-9.319-4.42 21.547-6.317-4.738c-0.531-0.398-1.274-0.345-1.743 0.124l-1.649 1.649 0.495-2.724 9.705-9.705c0.472-0.472 0.522-1.221 0.117-1.752s-1.141-0.68-1.721-0.348l-13.404 7.659-5.184-2.393zM10.903 19.305l0.809 2.83 0.31-1.707c0.049-0.267 0.177-0.513 0.369-0.704l2.96-2.96-4.448 2.541z"></path>
</symbol>
<symbol id="icon-icon5" viewBox="0 0 32 32">
<path d="M29.5 0h-27c-1.381 0-2.5 1.119-2.5 2.5v27c0 1.381 1.119 2.5 2.5 2.5h27c1.381 0 2.5-1.119 2.5-2.5v-27c0-1.381-1.119-2.5-2.5-2.5zM30.125 29.5c0 0.344-0.281 0.625-0.625 0.625h-27c-0.344 0-0.625-0.281-0.625-0.625v-27c0-0.344 0.281-0.625 0.625-0.625h27c0.344 0 0.625 0.281 0.625 0.625v27z"></path>
<path d="M16 7.956c-4.419 0-8 3.581-8 8 0 3.275 1.969 6.088 4.787 7.325-0.025-0.556-0.006-1.231 0.137-1.837 0.156-0.65 1.031-4.356 1.031-4.356s-0.256-0.512-0.256-1.262c0-1.188 0.688-2.069 1.544-2.069 0.725 0 1.081 0.544 1.081 1.2 0 0.731-0.469 1.825-0.706 2.838-0.2 0.85 0.425 1.538 1.262 1.538 1.519 0 2.538-1.944 2.538-4.25 0-1.75-1.181-3.063-3.331-3.063-2.425 0-3.938 1.806-3.938 3.831 0 0.7 0.206 1.188 0.525 1.569 0.15 0.175 0.169 0.244 0.113 0.444-0.037 0.144-0.125 0.5-0.162 0.644-0.056 0.2-0.219 0.275-0.4 0.2-1.119-0.456-1.637-1.681-1.637-3.056 0-2.275 1.919-5 5.719-5 3.056 0 5.063 2.213 5.063 4.581 0 3.137-1.744 5.481-4.319 5.481-0.863 0-1.675-0.469-1.956-0.994 0 0-0.463 1.844-0.563 2.2-0.169 0.619-0.5 1.231-0.806 1.712 0.719 0.212 1.481 0.331 2.269 0.331 4.419 0 8-3.581 8-8 0.006-4.425-3.575-8.006-7.994-8.006z"></path>
</symbol>
<symbol id="icon-icon1" viewBox="0 0 32 32">
<path d="M16 24c-4.418 0-8-3.582-8-8s3.582-8 8-8c4.418 0 8 3.582 8 8s-3.582 8-8 8zM16 21.333c2.945 0 5.333-2.388 5.333-5.333s-2.388-5.333-5.333-5.333c-2.946 0-5.333 2.388-5.333 5.333s2.388 5.333 5.333 5.333z"></path>
<path d="M24 6.667c-0.736 0-1.333 0.597-1.333 1.333s0.597 1.333 1.333 1.333c0.736 0 1.333-0.597 1.333-1.333s-0.597-1.333-1.333-1.333z"></path>
<path d="M2.205 5.701c0.767-1.505 1.991-2.729 3.496-3.496 1.711-0.872 3.951-0.872 8.432-0.872h3.733c4.48 0 6.721 0 8.432 0.872 1.505 0.767 2.729 1.991 3.496 3.496 0.872 1.711 0.872 3.951 0.872 8.432v3.733c0 4.48 0 6.721-0.872 8.432-0.767 1.505-1.991 2.729-3.496 3.496-1.711 0.872-3.951 0.872-8.432 0.872h-3.733c-4.48 0-6.721 0-8.432-0.872-1.505-0.767-2.729-1.991-3.496-3.496-0.872-1.711-0.872-3.951-0.872-8.432v-3.733c0-4.48 0-6.721 0.872-8.432zM17.867 4h-3.733c-2.284 0-3.837 0.002-5.037 0.1-1.169 0.096-1.767 0.269-2.184 0.481-1.004 0.511-1.819 1.327-2.331 2.331-0.213 0.417-0.386 1.015-0.481 2.184-0.098 1.2-0.1 2.753-0.1 5.037v3.733c0 2.284 0.002 3.837 0.1 5.037 0.096 1.169 0.269 1.767 0.481 2.184 0.511 1.003 1.327 1.819 2.331 2.331 0.417 0.213 1.015 0.386 2.184 0.481 1.2 0.098 2.753 0.1 5.037 0.1h3.733c2.284 0 3.837-0.002 5.037-0.1 1.169-0.095 1.767-0.269 2.184-0.481 1.003-0.511 1.819-1.327 2.331-2.331 0.213-0.417 0.386-1.015 0.481-2.184 0.098-1.2 0.1-2.753 0.1-5.037v-3.733c0-2.284-0.002-3.837-0.1-5.037-0.095-1.169-0.269-1.767-0.481-2.184-0.511-1.004-1.327-1.819-2.331-2.331-0.417-0.213-1.015-0.386-2.184-0.481-1.2-0.098-2.753-0.1-5.037-0.1z"></path>
</symbol>
</defs>
</svg>
